<svg xmlns="http://www.w3.org/2000/svg" viewBox="0 0 201.2 151.5"><defs><style>.cls-1{fill:#fcee21;}</style></defs><title>plane</title><g id="Layer_2" data-name="Layer 2"><g id="Layer_1-2" data-name="Layer 1"><path class="cls-1" d="M90.44,151.5a1.68,1.68,0,0,1-1.12-.28,4.54,4.54,0,0,1-3.07-3.62l-6.41-72-9.21,5a4.28,4.28,0,0,1-4.46-.28L1.74,35.2A4.64,4.64,0,0,1,.07,30.73,3.62,3.62,0,0,1,3.7,27.67L196.42.05a4.15,4.15,0,0,1,4.19,2,4.24,4.24,0,0,1-.28,4.74L93.78,149.83A3.65,3.65,0,0,1,90.44,151.5ZM87.65,69.78l5.86,66.38L181.64,17.62ZM15.41,34.36,67.57,71.18,175.23,11.49Z"/></g></g></svg>